<svg width="249" height="40" viewBox="0 0 249 40" fill="none" xmlns="http://www.w3.org/2000/svg">
<path d="M27.8743 13.8165H23.8738C23.6372 12.6713 23.2232 11.6651 22.6317 10.7982C22.051 9.93119 21.3412 9.20337 20.5024 8.61468C19.6744 8.01529 18.7549 7.56575 17.744 7.26606C16.7332 6.96636 15.6793 6.81652 14.5824 6.81652C12.5821 6.81652 10.7701 7.31957 9.14625 8.32569C7.53315 9.33181 6.24805 10.8142 5.29095 12.7729C4.3446 14.7317 3.87143 17.1346 3.87143 19.9817C3.87143 22.8287 4.3446 25.2317 5.29095 27.1904C6.24805 29.1491 7.53315 30.6315 9.14625 31.6376C10.7701 32.6437 12.5821 33.1468 14.5824 33.1468C15.6793 33.1468 16.7332 32.9969 17.744 32.6973C18.7549 32.3976 19.6744 31.9534 20.5024 31.3647C21.3412 30.7653 22.051 30.0321 22.6317 29.1651C23.2232 28.2875 23.6372 27.2813 23.8738 26.1468H27.8743C27.5732 27.8272 27.0247 29.331 26.2289 30.6583C25.4331 31.9855 24.4438 33.1147 23.2608 34.0459C22.0779 34.9664 20.7498 35.6674 19.2765 36.1491C17.8139 36.6307 16.2492 36.8716 14.5824 36.8716C11.7648 36.8716 9.25916 36.1865 7.06535 34.8165C4.87155 33.4465 3.14553 31.4985 1.88732 28.9725C0.629107 26.4465 0 23.4495 0 19.9817C0 16.5138 0.629107 13.5168 1.88732 10.9908C3.14553 8.46483 4.87155 6.51682 7.06535 5.14679C9.25916 3.77676 11.7648 3.09174 14.5824 3.09174C16.2492 3.09174 17.8139 3.33257 19.2765 3.81422C20.7498 4.29587 22.0779 5.0023 23.2608 5.93349C24.4438 6.85398 25.4331 7.97783 26.2289 9.30505C27.0247 10.6216 27.5732 12.1254 27.8743 13.8165Z" fill="white"/>
<path d="M33.8226 36.422V11.7615H37.5004V15.4862H37.7585C38.2102 14.2661 39.0275 13.276 40.2104 12.5161C41.3933 11.7561 42.7268 11.3761 44.2109 11.3761C44.4905 11.3761 44.84 11.3815 45.2594 11.3922C45.6788 11.4029 45.996 11.419 46.2111 11.4404V15.2936C46.0821 15.2615 45.7863 15.2133 45.3239 15.1491C44.8723 15.0742 44.3937 15.0367 43.8883 15.0367C42.6838 15.0367 41.6084 15.2882 40.6621 15.7913C39.7265 16.2836 38.9845 16.9687 38.436 17.8463C37.8983 18.7133 37.6295 19.7034 37.6295 20.8165V36.422H33.8226Z" fill="white"/>
<path d="M58.0149 37C56.4449 37 55.02 36.7057 53.7402 36.117C52.4605 35.5176 51.4443 34.656 50.6915 33.5321C49.9387 32.3976 49.5623 31.0275 49.5623 29.422C49.5623 28.0092 49.8419 26.8639 50.4011 25.9862C50.9603 25.0979 51.7077 24.4021 52.6433 23.8991C53.5789 23.396 54.6113 23.0214 55.7405 22.7752C56.8804 22.5184 58.0257 22.315 59.1764 22.1651C60.6819 21.9725 61.9025 21.828 62.8381 21.7317C63.7844 21.6246 64.4727 21.448 64.9029 21.2018C65.3438 20.9557 65.5642 20.5275 65.5642 19.9174V19.789C65.5642 18.2049 65.1287 16.974 64.2576 16.0963C63.3973 15.2187 62.0907 14.7798 60.3378 14.7798C58.5204 14.7798 57.0955 15.1758 56.0631 15.9679C55.0307 16.7599 54.3048 17.6055 53.8854 18.5046L50.2721 17.2202C50.9173 15.7217 51.7776 14.555 52.853 13.7202C53.9392 12.8746 55.1221 12.2859 56.4018 11.9541C57.6923 11.6116 58.9613 11.4404 60.2088 11.4404C61.0045 11.4404 61.9186 11.5367 62.951 11.7294C63.9942 11.9113 64.9996 12.2913 65.9675 12.8693C66.9461 13.4472 67.758 14.3196 68.4033 15.4862C69.0485 16.6529 69.3711 18.2156 69.3711 20.1743V36.422H65.5642V33.0826H65.3707C65.1126 33.6177 64.6824 34.1904 64.0802 34.8005C63.478 35.4106 62.6768 35.9297 61.6767 36.3578C60.6765 36.7859 59.456 37 58.0149 37ZM58.5957 33.5963C60.1012 33.5963 61.3702 33.302 62.4026 32.7133C63.4457 32.1246 64.2307 31.3647 64.7577 30.4335C65.2954 29.5023 65.5642 28.5229 65.5642 27.4954V24.0275C65.4029 24.2202 65.048 24.3968 64.4996 24.5573C63.9619 24.7072 63.3382 24.841 62.6284 24.9587C61.9294 25.0658 61.2465 25.1621 60.5798 25.2477C59.9238 25.3226 59.3915 25.3869 58.9828 25.4404C57.9934 25.5688 57.0686 25.7775 56.2083 26.0665C55.3587 26.3448 54.6705 26.7676 54.1435 27.3349C53.6273 27.8914 53.3692 28.6514 53.3692 29.6147C53.3692 30.9312 53.8585 31.9266 54.8371 32.6009C55.8265 33.2645 57.0794 33.5963 58.5957 33.5963Z" fill="white"/>
<path d="M191.611 36.422V11.7615H195.289V15.4862H195.547C195.999 14.2661 196.816 13.276 197.999 12.5161C199.182 11.7561 200.516 11.3761 202 11.3761C202.279 11.3761 202.629 11.3815 203.048 11.3922C203.468 11.4029 203.785 11.419 204 11.4404V15.2936C203.871 15.2615 203.575 15.2133 203.113 15.1491C202.661 15.0742 202.183 15.0367 201.677 15.0367C200.473 15.0367 199.397 15.2882 198.451 15.7913C197.515 16.2836 196.773 16.9687 196.225 17.8463C195.687 18.7133 195.418 19.7034 195.418 20.8165V36.422H191.611Z" fill="#F1B31C"/>
<path fill-rule="evenodd" clip-rule="evenodd" d="M109.707 36.422V3.54129H121.256C123.558 3.54129 125.456 3.93731 126.951 4.72936C128.445 5.5107 129.558 6.56499 130.29 7.8922C131.021 9.20872 131.387 10.6697 131.387 12.2752C131.387 13.6881 131.134 14.8547 130.628 15.7752C130.134 16.6957 129.478 17.4235 128.66 17.9587C127.854 18.4939 126.977 18.8899 126.031 19.1468V19.4679C127.042 19.5321 128.058 19.8853 129.08 20.5275C130.101 21.1697 130.956 22.0902 131.645 23.289C132.333 24.4878 132.677 25.9541 132.677 27.6881C132.677 29.3364 132.301 30.8188 131.548 32.1353C130.795 33.4518 129.607 34.4954 127.983 35.2661C126.359 36.0367 124.246 36.422 121.643 36.422H109.707ZM121.643 32.8899H113.707V21.4587H121.837C123.278 21.4587 124.526 21.7477 125.579 22.3257C126.633 22.893 127.445 23.6529 128.015 24.6055C128.585 25.5474 128.87 26.5749 128.87 27.6881C128.87 29.133 128.316 30.3639 127.209 31.3807C126.112 32.3869 124.257 32.8899 121.643 32.8899ZM121.127 17.9908H113.707V7.0734H121.256C123.45 7.0734 125.052 7.58181 126.063 8.59863C127.074 9.60474 127.58 10.8303 127.58 12.2752C127.58 13.4312 127.289 14.4373 126.709 15.2936C126.139 16.1498 125.364 16.8135 124.386 17.2844C123.418 17.7554 122.332 17.9908 121.127 17.9908Z" fill="#F1B31C"/>
<path fill-rule="evenodd" clip-rule="evenodd" d="M87.3531 14.9725V11.7615H81.8041V9.25688C81.8041 8.0367 82.0783 7.11086 82.6267 6.47936C83.1859 5.84786 84.0947 5.53211 85.3529 5.53211C85.9013 5.53211 86.3422 5.58028 86.6756 5.67661C87.0197 5.77294 87.2886 5.85321 87.4822 5.91743L88.5791 2.6422C88.2887 2.51376 87.8478 2.37462 87.2563 2.22477C86.6648 2.07492 85.9013 2 84.9657 2C83.7828 2 82.659 2.23547 81.5944 2.70642C80.5297 3.17737 79.664 3.88379 78.9973 4.82569C78.3305 5.76758 77.9972 6.94496 77.9972 8.3578V11.7615H73.9967V14.9725H77.9972V36.422H81.8041V14.9725H87.3531ZM81.8041 14.9725V11.7615H77.9972V14.9725H81.8041Z" fill="white"/>
<path d="M81.8041 14.9725V11.7615H77.9972V14.9725H81.8041Z" fill="white"/>
<path fill-rule="evenodd" clip-rule="evenodd" d="M103.464 11.7615V14.9725H98.1729V11.7615H103.464ZM94.366 11.7615V14.9725H90.6236V11.7615H94.366ZM94.366 14.9725V30.3853C94.366 31.8196 94.6994 33.0076 95.3661 33.9495C96.0436 34.8914 96.8932 35.5925 97.9148 36.0528C98.9472 36.513 100.001 36.7431 101.077 36.7431C101.786 36.7431 102.372 36.6896 102.835 36.5826C103.297 36.4862 103.657 36.3899 103.916 36.2936L103.141 32.8899L102.496 33.0184C102.227 33.0612 101.883 33.0826 101.464 33.0826C100.904 33.0826 100.372 32.9969 99.8667 32.8257C99.372 32.6437 98.9634 32.2905 98.6407 31.7661C98.3289 31.2309 98.1729 30.4281 98.1729 29.3578V14.9725H94.366Z" fill="white"/>
<path d="M98.1729 11.7615H94.366V14.9725H98.1729V11.7615Z" fill="white"/>
<path d="M98.1729 5.85321H94.366V11.7615H98.1729V5.85321Z" fill="white"/>
<path d="M140.283 22.1009V25.3761H141.388L141.387 25.3362C141.382 25.1804 141.38 25.0224 141.38 24.8624V22.6789C141.38 22.4845 141.386 22.2918 141.398 22.1009H140.283Z" fill="#F1B31C"/>
<path d="M142.944 35.3624C144.676 36.4113 146.735 36.9358 149.123 36.9358C150.8 36.9358 152.311 36.6789 153.655 36.1651C155 35.6407 156.129 34.9128 157.043 33.9817C157.957 33.0398 158.608 31.948 158.995 30.7064L155.317 29.6789C154.994 30.5352 154.537 31.2523 153.946 31.8303C153.354 32.3976 152.65 32.8257 151.833 33.1147C151.026 33.393 150.123 33.5321 149.123 33.5321C147.585 33.5321 146.235 33.2003 145.074 32.5367C143.912 31.8624 143.004 30.883 142.348 29.5986C141.762 28.4243 141.443 27.0168 141.388 25.3761H140.283V22.1009H141.398C141.47 20.957 141.76 19.876 142.267 18.8578C142.858 17.6697 143.703 16.7064 144.799 15.9679C145.907 15.2187 147.219 14.844 148.735 14.844C150.112 14.844 151.306 15.1598 152.316 15.7913C153.338 16.4228 154.123 17.2844 154.672 18.3761C155.231 19.4679 155.51 20.7095 155.51 22.1009H141.398C141.386 22.2918 141.38 22.4845 141.38 22.6789V24.8624C141.38 25.0224 141.382 25.1804 141.387 25.3362L141.388 25.3761H159.382V23.7706C159.382 21.4694 159.075 19.5321 158.462 17.9587C157.849 16.3853 157.027 15.1223 155.994 14.1697C154.962 13.2064 153.817 12.5107 152.558 12.0826C151.3 11.6544 150.026 11.4404 148.735 11.4404C146.499 11.4404 144.541 11.9862 142.864 13.078C141.197 14.159 139.896 15.6682 138.96 17.6055C138.035 19.5321 137.573 21.7584 137.573 24.2844C137.573 26.8104 138.035 29.026 138.96 30.9312C139.896 32.8257 141.224 34.3028 142.944 35.3624Z" fill="#F1B31C"/>
<path d="M166.721 22.1009V25.3761H167.827L167.825 25.3362C167.821 25.1804 167.818 25.0224 167.818 24.8624V22.6789C167.818 22.4845 167.824 22.2918 167.836 22.1009H166.721Z" fill="#F1B31C"/>
<path d="M169.383 35.3624C171.114 36.4113 173.174 36.9358 175.561 36.9358C177.239 36.9358 178.75 36.6789 180.094 36.1651C181.438 35.6407 182.567 34.9128 183.481 33.9817C184.396 33.0398 185.046 31.948 185.433 30.7064L181.755 29.6789C181.433 30.5352 180.976 31.2523 180.384 31.8303C179.793 32.3976 179.088 32.8257 178.271 33.1147C177.465 33.393 176.561 33.5321 175.561 33.5321C174.023 33.5321 172.674 33.2003 171.512 32.5367C170.351 31.8624 169.442 30.883 168.786 29.5986C168.201 28.4243 167.881 27.0168 167.827 25.3761H166.721V22.1009H167.836C167.909 20.957 168.199 19.876 168.705 18.8578C169.297 17.6697 170.141 16.7064 171.238 15.9679C172.346 15.2187 173.658 14.844 175.174 14.844C176.551 14.844 177.744 15.1598 178.755 15.7913C179.777 16.4228 180.562 17.2844 181.11 18.3761C181.669 19.4679 181.949 20.7095 181.949 22.1009H167.836C167.824 22.2918 167.818 22.4845 167.818 22.6789V24.8624C167.818 25.0224 167.821 25.1804 167.825 25.3362L167.827 25.3761H185.82V23.7706C185.82 21.4694 185.514 19.5321 184.901 17.9587C184.288 16.3853 183.465 15.1223 182.433 14.1697C181.401 13.2064 180.255 12.5107 178.997 12.0826C177.739 11.6544 176.464 11.4404 175.174 11.4404C172.937 11.4404 170.98 11.9862 169.302 13.078C167.635 14.159 166.334 15.6682 165.399 17.6055C164.474 19.5321 164.011 21.7584 164.011 24.2844C164.011 26.8104 164.474 29.026 165.399 30.9312C166.334 32.8257 167.662 34.3028 169.383 35.3624Z" fill="#F1B31C"/>
<path d="M235.25 15C235.25 14.6685 235.118 14.3505 234.884 14.1161C234.649 13.8817 234.332 13.75 234 13.75C233.668 13.75 233.351 13.8817 233.116 14.1161C232.882 14.3505 232.75 14.6685 232.75 15V30C232.75 30.3315 232.882 30.6495 233.116 30.8839C233.351 31.1183 233.668 31.25 234 31.25C234.332 31.25 234.649 31.1183 234.884 30.8839C235.118 30.6495 235.25 30.3315 235.25 30V15ZM227.75 13.75C228.082 13.75 228.399 13.8817 228.634 14.1161C228.868 14.3505 229 14.6685 229 15V30C229 30.3315 228.868 30.6495 228.634 30.8839C228.399 31.1183 228.082 31.25 227.75 31.25C227.418 31.25 227.101 31.1183 226.866 30.8839C226.632 30.6495 226.5 30.3315 226.5 30V15C226.5 14.6685 226.632 14.3505 226.866 14.1161C227.101 13.8817 227.418 13.75 227.75 13.75ZM222.75 15C222.75 14.6685 222.618 14.3505 222.384 14.1161C222.149 13.8817 221.832 13.75 221.5 13.75C221.168 13.75 220.851 13.8817 220.616 14.1161C220.382 14.3505 220.25 14.6685 220.25 15V30C220.25 30.3315 220.382 30.6495 220.616 30.8839C220.851 31.1183 221.168 31.25 221.5 31.25C221.832 31.25 222.149 31.1183 222.384 30.8839C222.618 30.6495 222.75 30.3315 222.75 30V15ZM220.25 0C218.592 0 217.003 0.65848 215.831 1.83058C214.658 3.00269 214 4.5924 214 6.25V35.625C214 38.04 215.96 40 218.375 40H237.125C238.285 40 239.398 39.5391 240.219 38.7186C241.039 37.8981 241.5 36.7853 241.5 35.625V32.5H242.75C244.408 32.5 245.997 31.8415 247.169 30.6694C248.342 29.4973 249 27.9076 249 26.25V13.75C249 12.0924 248.342 10.5027 247.169 9.33058C245.997 8.15848 244.408 7.5 242.75 7.5H241.5V6.25C241.5 4.5924 240.842 3.00269 239.669 1.83058C238.497 0.65848 236.908 0 235.25 0H220.25ZM241.5 10H242.75C243.745 10 244.698 10.3951 245.402 11.0983C246.105 11.8016 246.5 12.7554 246.5 13.75V26.25C246.5 27.2446 246.105 28.1984 245.402 28.9017C244.698 29.6049 243.745 30 242.75 30H241.5V10ZM216.5 6.25C216.5 5.25544 216.895 4.30161 217.598 3.59835C218.302 2.89509 219.255 2.5 220.25 2.5H235.25C236.245 2.5 237.198 2.89509 237.902 3.59835C238.605 4.30161 239 5.25544 239 6.25V7.5H216.5V6.25ZM216.5 10H239V35.625C239 36.1223 238.802 36.5992 238.451 36.9508C238.099 37.3025 237.622 37.5 237.125 37.5H218.375C217.878 37.5 217.401 37.3025 217.049 36.9508C216.698 36.5992 216.5 36.1223 216.5 35.625V10Z" fill="white"/>
</svg>
