<svg height="30" viewBox="0 0 20 20" fill="none" xmlns="http://www.w3.org/2000/svg">
<path d="M6.52285 10.75C6.52285 10.3358 6.18707 10 5.77285 10C5.35864 10 5.02285 10.3358 5.02285 10.75V14.75C5.02285 15.1642 5.35864 15.5 5.77285 15.5C6.18707 15.5 6.52285 15.1642 6.52285 14.75V10.75Z" fill="white"/>
<path d="M13.7729 10C14.1871 10 14.5229 10.3358 14.5229 10.75V14.75C14.5229 15.1642 14.1871 15.5 13.7729 15.5C13.3586 15.5 13.0229 15.1642 13.0229 14.75V10.75C13.0229 10.3358 13.3586 10 13.7729 10Z" fill="white"/>
<path d="M10.5229 10.75C10.5229 10.3358 10.1871 10 9.77285 10C9.35864 10 9.02285 10.3358 9.02285 10.75V14.75C9.02285 15.1642 9.35864 15.5 9.77285 15.5C10.1871 15.5 10.5229 15.1642 10.5229 14.75V10.75Z" fill="white"/>
<path fill-rule="evenodd" clip-rule="evenodd" d="M15.0466 1.22298C14.5711 1.03712 14.0383 1.00574 13.3548 1.00077C13.0741 0.409118 12.4713 0 11.7729 0H7.77285C7.07445 0 6.4716 0.409118 6.19089 1.00077C5.50735 1.00574 4.97461 1.03712 4.49906 1.22298C3.93087 1.44505 3.43666 1.82255 3.07294 2.3123C2.70601 2.80639 2.53377 3.43968 2.29669 4.31133L1.66882 6.61426C1.28132 6.81269 0.942234 7.07992 0.659367 7.4422C0.0373737 8.23884 -0.0727797 9.18768 0.0378703 10.2761C0.14524 11.3322 0.477735 12.6621 0.893954 14.3269L0.920353 14.4325C1.18353 15.4853 1.39721 16.3401 1.65135 17.0072C1.91632 17.7027 2.25272 18.2727 2.80734 18.7058C3.36196 19.1388 3.9966 19.3269 4.73561 19.4153C5.44443 19.5 6.32551 19.5 7.41069 19.5H12.1349C13.2201 19.5 14.1012 19.5 14.81 19.4153C15.549 19.3269 16.1837 19.1388 16.7383 18.7058C17.2929 18.2727 17.6293 17.7027 17.8943 17.0072C18.1484 16.3401 18.3621 15.4853 18.6253 14.4325L18.6517 14.327C19.0679 12.6622 19.4004 11.3322 19.5077 10.2761C19.6184 9.18768 19.5082 8.23884 18.8862 7.4422C18.6034 7.07995 18.2644 6.81274 17.8769 6.61431L17.249 4.31133C17.0119 3.43968 16.8397 2.80639 16.4728 2.3123C16.109 1.82255 15.6148 1.44505 15.0466 1.22298ZM5.04509 2.62007C5.26489 2.53416 5.53047 2.50888 6.1923 2.50219C6.47362 3.09225 7.07562 3.5 7.77285 3.5H11.7729C12.4701 3.5 13.0721 3.09225 13.3534 2.50219C14.0152 2.50888 14.2808 2.53416 14.5006 2.62007C14.8066 2.73964 15.0727 2.94291 15.2685 3.20663C15.4446 3.44377 15.548 3.77508 15.8389 4.84194L16.1925 6.1387C15.1546 5.99996 13.8148 5.99998 12.1502 6H7.39541C5.73083 5.99998 4.39104 5.99996 3.35325 6.13868L3.70683 4.84195C3.99773 3.77508 4.10107 3.44376 4.27718 3.20662C4.47303 2.94291 4.73914 2.73964 5.04509 2.62007ZM7.77285 1.5C7.63478 1.5 7.52285 1.61193 7.52285 1.75C7.52285 1.88807 7.63478 2 7.77285 2H11.7729C11.9109 2 12.0229 1.88807 12.0229 1.75C12.0229 1.61193 11.9109 1.5 11.7729 1.5H7.77285ZM1.84168 8.36532C2.12051 8.00819 2.56149 7.7683 3.47265 7.63649C4.40329 7.50187 5.66512 7.5 7.45747 7.5H12.0882C13.8805 7.5 15.1423 7.50187 16.073 7.63649C16.9841 7.7683 17.4251 8.00819 17.7039 8.36532C17.9828 8.72245 18.1086 9.20844 18.0154 10.1244C17.9203 11.0599 17.6161 12.2845 17.1814 14.0233C16.9041 15.1324 16.711 15.8996 16.4925 16.4731C16.2812 17.0278 16.0743 17.3211 15.8152 17.5235C15.556 17.7258 15.2213 17.8554 14.6319 17.9259C14.0225 17.9988 13.2313 18 12.0881 18H7.45747C6.31428 18 5.5231 17.9988 4.91371 17.9259C4.32435 17.8554 3.98962 17.7258 3.73046 17.5235C3.4713 17.3211 3.26439 17.0278 3.05308 16.4731C2.83458 15.8996 2.64148 15.1324 2.36422 14.0233C1.92951 12.2845 1.62528 11.0599 1.53018 10.1244C1.43706 9.20844 1.56284 8.72245 1.84168 8.36532Z" fill="white"/>
</svg>
